<svg width="48" height="48" viewBox="0 0 48 48" fill="none" xmlns="http://www.w3.org/2000/svg">
<g id="Frame" clip-path="url(#clip0_14051_895)">
<g id="Group">
<path id="Vector" d="M42.2609 11.4783H37.2522L34.487 7.3044C33.4435 5.73918 31.6174 4.80005 29.7392 4.80005H18.2609C16.3826 4.80005 14.5565 5.73918 13.5131 7.3044L10.7479 11.4783H5.73915C4.98487 11.4761 4.2376 11.6231 3.54031 11.9107C2.84302 12.1984 2.20948 12.621 1.67612 13.1544C1.14276 13.6878 0.720097 14.3213 0.432451 15.0186C0.144804 15.7159 -0.00215517 16.4632 2.38818e-05 17.2174V37.4609C-0.00215517 38.2152 0.144804 38.9625 0.432451 39.6598C0.720097 40.357 1.14276 40.9906 1.67612 41.524C2.20948 42.0573 2.84302 42.48 3.54031 42.7676C4.2376 43.0553 4.98487 43.2022 5.73915 43.2H42.2609C43.0152 43.2022 43.7625 43.0553 44.4597 42.7676C45.157 42.48 45.7906 42.0573 46.3239 41.524C46.8573 40.9906 47.2799 40.357 47.5676 39.6598C47.8552 38.9625 48.0022 38.2152 48 37.4609V17.2174C48.0022 16.4632 47.8552 15.7159 47.5676 15.0186C47.2799 14.3213 46.8573 13.6878 46.3239 13.1544C45.7906 12.621 45.157 12.1984 44.4597 11.9107C43.7625 11.6231 43.0152 11.4761 42.2609 11.4783ZM24 38.5044C16.8522 38.5044 11.0609 32.7131 11.0609 25.5653C11.0609 18.4174 16.8522 12.6783 24 12.6783C31.1478 12.6783 36.9392 18.4696 36.9392 25.6174C36.9392 32.7131 31.1478 38.5044 24 38.5044ZM41.5305 19.5653H39.2348C38.2957 19.5131 37.5652 18.7305 37.6174 17.7914C37.6696 16.9044 38.3478 16.2261 39.2348 16.174H41.3218C42.2609 16.1218 43.0435 16.8522 43.0957 17.7914C43.1479 18.7305 42.4696 19.5131 41.5305 19.5653Z" fill="#141414"/>
<path id="Vector_2" d="M23.9969 18.4175C20.0317 18.4175 16.7969 21.6523 16.7969 25.6175C16.7969 29.5827 20.0317 32.7653 23.9969 32.7653C27.9621 32.7653 31.1969 29.5305 31.1969 25.5653C31.1969 21.6001 27.9621 18.4175 23.9969 18.4175Z" fill="#141414"/>
</g>
</g>
<defs>
<clipPath id="clip0_14051_895">
<rect width="48" height="48" fill="white"/>
</clipPath>
</defs>
</svg>
